<?xml version="1.0" encoding="UTF-8" standalone="no"?>
<!-- Created with Inkscape (http://www.inkscape.org/) -->

<svg
   version="1.1"
   id="svg888"
   width="386.39243"
   height="40"
   viewBox="0 0 386.39242 39.999999"
   sodipodi:docname="heraclitus-block.svg"
   inkscape:version="1.2.2 (b0a8486541, 2022-12-01)"
   xmlns:inkscape="http://www.inkscape.org/namespaces/inkscape"
   xmlns:sodipodi="http://sodipodi.sourceforge.net/DTD/sodipodi-0.dtd"
   xmlns="http://www.w3.org/2000/svg"
   xmlns:svg="http://www.w3.org/2000/svg">
  <defs
     id="defs892" />
  <sodipodi:namedview
     id="namedview890"
     pagecolor="#ffffff"
     bordercolor="#666666"
     borderopacity="1.0"
     inkscape:pageshadow="2"
     inkscape:pageopacity="0.0"
     inkscape:pagecheckerboard="0"
     showgrid="false"
     fit-margin-top="0"
     fit-margin-left="0"
     fit-margin-right="0"
     fit-margin-bottom="0"
     inkscape:zoom="2.1295426"
     inkscape:cx="211.31298"
     inkscape:cy="73.255168"
     inkscape:window-width="1920"
     inkscape:window-height="1080"
     inkscape:window-x="0"
     inkscape:window-y="0"
     inkscape:window-maximized="1"
     inkscape:current-layer="g894"
     showguides="true"
     inkscape:guide-bbox="true"
     inkscape:showpageshadow="2"
     inkscape:deskcolor="#d1d1d1">
    <sodipodi:guide
       position="81.364344,-53.993181"
       orientation="0,-1"
       id="guide10844"
       inkscape:locked="false" />
  </sodipodi:namedview>
  <g
     inkscape:groupmode="layer"
     inkscape:label="Image"
     id="g894"
     transform="translate(0.3999355,10.267482)">
    <path
       style="fill:#f7eacf;fill-opacity:1;stroke-width:0.0406932"
       d="m 7.6778424,25.079892 -8.0572617,-4.650131 -0.0102581,-9.344556 -0.0102581,-9.3445584 0.13233993,0.078293 c 0.0727879,0.043061 0.72931612,0.4228315 1.45895437,0.8439339 l 1.3266147,0.7656408 c 0.095033,5.0962624 -0.06722,10.2015457 0.086403,15.2959627 0.015133,0.0156 2.9665775,1.724261 6.5587731,3.797041 3.5921954,2.072781 6.5452034,3.782465 6.5622384,3.799301 0.01704,0.01683 0.02619,0.790793 0.02035,1.719907 l -0.01062,1.689295 z M 18.888831,28.04501 v -1.704134 l 6.602478,-3.808533 6.602479,-3.808533 0.02035,-7.640939 0.02034,-7.640936 1.424263,-0.8269066 c 0.783344,-0.4547986 1.436503,-0.8269148 1.451463,-0.8269245 0.04687,-3.12e-5 0.06126,18.5705271 0.01444,18.6238581 -0.0229,0.02608 -0.920609,0.555133 -1.994911,1.175675 -1.0743,0.620544 -2.530102,1.461773 -3.235112,1.869401 -1.990446,1.150849 -4.409572,2.546276 -4.903535,2.82851 -0.246194,0.140669 -1.070233,0.616755 -1.831196,1.057972 -1.14245,0.662405 -4.029968,2.32838 -4.140538,2.388915 -0.01679,0.0092 -0.03051,-0.750152 -0.03051,-1.687425 z m -3.3165,-5.233125 c -0.08953,-0.05237 -0.950187,-0.54939 -1.912583,-1.104479 C 12.697354,21.152314 11.351425,20.374073 10.668795,19.977982 9.9861666,19.58189 8.5440997,18.749561 7.464203,18.128362 L 5.5007541,16.998908 v -5.916643 c 0,-3.2541521 0.00638,-5.9166406 0.014157,-5.9166406 0.01668,0 2.7308451,1.5647209 2.8647003,1.651505 l 0.091372,0.059239 0.010362,4.2160106 0.010362,4.216008 3.6318716,2.09539 3.631872,2.095387 v 1.704356 c 0,0.937396 -0.0046,1.704182 -0.01017,1.703973 -0.0056,-2.04e-4 -0.08342,-0.04324 -0.172946,-0.09561 z m 3.317152,-1.602952 6.57e-4,-1.698944 3.661742,-2.110246 3.66174,-2.11025 V 11.071015 6.8525362 l 1.465092,-0.8415386 1.465092,-0.8415388 -0.0103,5.9250552 -0.0103,5.925052 -0.895251,0.51609 c -1.415544,0.816024 -4.542555,2.621478 -5.656361,3.265832 -2.670184,1.544743 -3.647209,2.106388 -3.664219,2.106388 -0.01019,0 -0.01823,-0.764524 -0.01787,-1.698943 z m -3.321216,-5.22874 c -0.09176,-0.05055 -1.066874,-0.610871 -2.166916,-1.245171 L 11.401273,13.58175 v -2.498946 c 0,-1.3744214 0.01,-2.4989483 0.02215,-2.4989483 0.04118,0 4.236105,2.4168393 4.301834,2.4784373 0.01696,0.0159 0.02611,1.149602 0.02035,2.519349 l -0.01049,2.490454 z m 3.320564,-2.406016 v -2.505942 l 0.132252,-0.06827 c 0.07274,-0.03755 0.992916,-0.566422 2.044836,-1.1752694 1.051921,-0.6088475 1.972236,-1.1376512 2.045148,-1.1751206 l 0.132563,-0.068119 -0.01049,2.512036 -0.01049,2.512032 -0.529013,0.302254 c -0.290956,0.166238 -1.238003,0.712255 -2.104545,1.213369 -0.866544,0.501113 -1.6036,0.921886 -1.637903,0.935048 -0.0556,0.02134 -0.06236,-0.24747 -0.06236,-2.482007 z M 15.155226,7.1108543 C 13.985803,6.4357038 13.029004,5.8721631 13.029004,5.858541 c 0,-0.030567 0.217706,-0.1584692 2.470067,-1.4511477 0.989244,-0.5677491 1.81752,-1.0322712 1.84061,-1.0322712 0.09755,0 4.281019,2.445678 4.26511,2.493404 -0.0075,0.022373 -0.205002,0.1504518 -0.438988,0.2846186 -0.233987,0.1341664 -1.13044,0.6512293 -1.992119,1.1490293 -1.608174,0.9290565 -1.803559,1.0379924 -1.859695,1.0368753 -0.0179,-3.605e-4 -0.989341,-0.553044 -2.158763,-1.228195 z M 9.3825988,3.7756988 C 7.8297512,2.8867908 7.1284836,2.4715759 7.1284836,2.4410534 c 0,-0.018009 0.2243216,-0.1610859 0.4984922,-0.3179469 0.2741708,-0.156861 2.5671992,-1.47771372 5.0956182,-2.93522845 2.52842,-1.45751465 4.61091,-2.64526735 4.627756,-2.63945005 0.07627,0.026338 10.202678,5.8727777 10.204306,5.8914157 0.0021,0.02464 -0.04266,0.051182 -1.673741,0.9913564 L 24.632619,4.1507338 22.218524,2.7516477 c -3.479584,-2.01658827 -4.84035,-2.79475794 -4.887125,-2.79475794 -0.04868,0 -0.352482,0.17339855 -4.261702,2.43239424 -1.645024,0.9505996 -3.002072,1.7347225 -3.01566,1.7424954 -0.01359,0.00777 -0.3157368,-0.1524634 -0.6714382,-0.3560806 z m -5.9572,-3.43633368 C 3.0561077,0.12577105 2.4011012,-0.25266595 1.969827,-0.5016064 1.3556112,-0.85614484 1.1968885,-0.96456731 1.2373486,-1.0019542 c 0.028411,-0.026251 3.6571524,-2.1303031 8.0638727,-4.6756699 6.8121107,-3.9347468 8.0251067,-4.6220679 8.0982727,-4.5887309 0.04734,0.02156 1.788925,1.0243398 3.87021,2.2283873 6.89705,3.9900256 7.836295,4.5328868 10.018871,5.7906778 1.190966,0.6863388 2.166077,1.26012152 2.166915,1.27507268 8.48e-4,0.0149505 -0.387607,0.25100185 -0.86321,0.52455684 -0.475602,0.27355506 -1.103402,0.63781525 -1.395111,0.8094672 C 30.905463,0.53345894 30.636922,0.68536386 30.600414,0.6993734 30.558422,0.71548529 30.319683,0.60123267 29.950687,0.38843847 29.629846,0.20341437 28.634862,-0.369183 27.739611,-0.88400084 26.844359,-1.3988184 25.672395,-2.0768397 25.135244,-2.3907149 24.598093,-2.70459 23.764898,-3.1865068 23.283702,-3.4616421 22.802504,-3.7367772 21.438262,-4.5233433 20.252055,-5.2095664 19.065846,-5.8957898 17.924932,-6.5542148 17.716688,-6.6727335 l -0.378623,-0.2154882 -0.496281,0.2851962 c -0.272954,0.1568578 -1.540063,0.8844613 -2.815796,1.6168964 -1.275733,0.7324345 -3.006213,1.7300908 -3.845512,2.217013 -0.8392971,0.4869229 -1.8098311,1.0490445 -2.156741,1.24916 C 7.6768251,-1.3198409 6.6731327,-0.73987598 5.7933088,-0.23114497 4.9134828,0.27758555 4.1718484,0.70144729 4.1452325,0.71076923 4.1186145,0.7200904 3.79469,0.55295954 3.4253988,0.33936512 Z"
       id="path3044"
       sodipodi:nodetypes="ccccssccscsccccccccssssssssscsssscssscccccssssccccccccccsssccsscsssscsscssscccsssssssssssssssssscscsssssssssssscssssssssscsssssss" />
    <g
       id="g1531"
       transform="matrix(0.21194396,0,0,0.21194396,-4.0090504,-7.2439217)"
       style="fill:#f7eacf;fill-opacity:1">
      <path
         style="fill:#f7eacf;fill-opacity:1;stroke:none;stroke-width:0.192"
         d="M 83.328,0 83.52,0.19199999 Z"
         id="path1533" />
    </g>
    <text
       xml:space="preserve"
       style="font-style:normal;font-weight:normal;font-size:29.3117px;line-height:1.25;font-family:sans-serif;fill:#f9f9f9;fill-opacity:1;stroke:none;stroke-width:0.732792"
       x="47.383976"
       y="21.318241"
       id="text4804"><tspan
         sodipodi:role="line"
         id="tspan4802"
         x="47.383976"
         y="21.318241"
         style="font-style:normal;font-variant:normal;font-weight:bold;font-stretch:normal;font-family:Comfortaa;-inkscape-font-specification:'Comfortaa Bold';fill:#f9f9f9;stroke-width:0.732792">The Heraclitus Project</tspan></text>
  </g>
</svg>
