<?xml version="1.0" encoding="UTF-8" standalone="no"?>
<!-- Created with Inkscape (http://www.inkscape.org/) -->

<svg
   width="78.954987mm"
   height="31.756252mm"
   viewBox="0 0 78.954987 31.756252"
   version="1.1"
   id="svg119"
   inkscape:version="1.2.2 (b0a8486541, 2022-12-01)"
   sodipodi:docname="heraclitus-block.svg"
   xmlns:inkscape="http://www.inkscape.org/namespaces/inkscape"
   xmlns:sodipodi="http://sodipodi.sourceforge.net/DTD/sodipodi-0.dtd"
   xmlns="http://www.w3.org/2000/svg"
   xmlns:svg="http://www.w3.org/2000/svg">
  <sodipodi:namedview
     id="namedview121"
     pagecolor="#ffffff"
     bordercolor="#666666"
     borderopacity="1.0"
     inkscape:showpageshadow="2"
     inkscape:pageopacity="0.0"
     inkscape:pagecheckerboard="0"
     inkscape:deskcolor="#d1d1d1"
     inkscape:document-units="mm"
     showgrid="false"
     showguides="true"
     inkscape:zoom="4.1676048"
     inkscape:cx="152.84559"
     inkscape:cy="82.061524"
     inkscape:window-width="1920"
     inkscape:window-height="1080"
     inkscape:window-x="0"
     inkscape:window-y="0"
     inkscape:window-maximized="1"
     inkscape:current-layer="layer1">
    <sodipodi:guide
       position="34.730299,31.772831"
       orientation="0,-1"
       id="guide334"
       inkscape:locked="false" />
    <sodipodi:guide
       position="48.260705,1.3343704"
       orientation="0,-1"
       id="guide336"
       inkscape:locked="false" />
  </sodipodi:namedview>
  <defs
     id="defs116" />
  <g
     inkscape:label="Layer 1"
     inkscape:groupmode="layer"
     id="layer1"
     transform="translate(-44.753804,-62.772189)">
    <path
       style="fill:#f7eacf;stroke-width:0.0308315;fill-opacity:1"
       d="m 50.87327,89.553458 -6.104666,-3.523205 -0.0074,-7.080009 -0.0074,-7.079985 0.100284,0.0593 c 0.05515,0.0327 0.552567,0.320363 1.105379,0.63941 l 1.005113,0.580092 c 0.07198,3.861236 -0.05099,7.729304 0.06539,11.589148 0.0122,0.0122 2.247651,1.306396 4.969323,2.876863 2.721671,1.570467 4.959049,2.865834 4.971957,2.878571 0.0122,0.0122 0.01952,0.59915 0.01464,1.303102 l -0.0074,1.279921 z m 8.494137,2.246553 v -1.291145 l 5.002411,-2.885575 5.002435,-2.885574 0.01464,-5.78923 0.01464,-5.78923 1.079099,-0.626528 c 0.593512,-0.34457 1.088394,-0.626502 1.099716,-0.626527 0.03563,0 0.04636,14.070149 0.0098,14.110557 -0.01708,0.01952 -0.697512,0.420605 -1.511465,0.890769 -0.813954,0.470164 -1.916941,1.107526 -2.451109,1.416373 -1.508073,0.871956 -3.340952,1.929215 -3.715219,2.143043 -0.186426,0.106634 -0.810855,0.467285 -1.387408,0.801582 -0.865587,0.501886 -3.053357,1.764117 -3.137127,1.80999 -0.0122,0.0074 -0.02197,-0.568354 -0.02197,-1.278505 z M 56.854611,87.835094 C 56.786781,87.795324 56.1347,87.418833 55.40554,86.998277 54.676358,86.577696 53.656603,85.988063 53.139393,85.687952 52.622208,85.387865 51.529616,84.757238 50.711417,84.286561 l -1.487625,-0.855728 v -4.48281 c 0,-2.46553 0.0048,-4.482809 0.0098,-4.482809 0.0122,0 2.069058,1.185537 2.17047,1.251298 l 0.0693,0.0449 0.0074,3.1943 0.0074,3.194299 2.751709,1.587597 2.751733,1.587597 v 1.291316 c 0,0.710224 -0.0024,1.291194 -0.0074,1.291023 -0.0048,-1.46e-4 -0.0632,-0.0327 -0.131035,-0.07248 z m 2.513284,-1.214501 4.89e-4,-1.287216 2.774353,-1.598846 2.774353,-1.598845 v -3.196179 -3.196178 l 1.110039,-0.637606 1.110064,-0.637581 -0.0074,4.489154 -0.0074,4.489178 -0.678306,0.39103 c -1.072486,0.618281 -3.441705,1.986192 -4.285598,2.474389 -2.023087,1.170383 -2.763349,1.595917 -2.776233,1.595917 -0.0074,0 -0.01464,-0.579238 -0.01464,-1.287217 z m -2.516358,-3.961598 c -0.06954,-0.03831 -0.808317,-0.462842 -1.641792,-0.943426 l -1.515369,-0.873786 v -1.893345 c 0,-1.04135 0.0074,-1.893344 0.01708,-1.893344 0.03124,0 3.209526,1.831121 3.259329,1.8778 0.0122,0.0122 0.01952,0.871004 0.01464,1.908816 l -0.0074,1.886903 z m 2.51587,-1.822946 v -1.89864 l 0.100294,-0.05173 c 0.05514,-0.02854 0.752292,-0.42917 1.549286,-0.890452 0.796996,-0.461306 1.494286,-0.861951 1.54953,-0.890354 l 0.100537,-0.05173 -0.0074,1.903276 -0.0074,1.903252 -0.400815,0.229128 c -0.220344,0.125911 -0.937986,0.539659 -1.594528,0.919318 -0.656565,0.379685 -1.214988,0.698488 -1.240976,0.708467 -0.04222,0.01708 -0.04734,-0.187401 -0.04734,-1.880533 z M 56.53859,75.939052 c -0.886011,-0.511549 -1.610949,-0.938498 -1.610949,-0.94882 0,-0.0244 0.164954,-0.120054 1.871482,-1.099498 0.74951,-0.430145 1.377037,-0.782109 1.394533,-0.782109 0.07394,0 3.243566,1.853009 3.231511,1.889171 -0.0048,0.01708 -0.155191,0.113954 -0.332589,0.215708 -0.177397,0.101757 -0.856509,0.493418 -1.509365,0.870564 -1.218455,0.703929 -1.366473,0.786454 -1.409004,0.7856 -0.01464,-2.68e-4 -0.749584,-0.419019 -1.635619,-0.930543 z m -4.373686,-2.526924 c -1.176533,-0.673476 -1.707847,-0.988082 -1.707847,-1.01119 0,-0.01464 0.169833,-0.122006 0.377683,-0.24084 0.207655,-0.118835 1.945076,-1.119604 3.860748,-2.22391 1.915672,-1.104279 3.493508,-2.004199 3.506269,-1.999783 0.05784,0.01952 7.730158,4.449551 7.731378,4.463679 0.0017,0.01952 -0.03221,0.03879 -1.268111,0.75112 l -0.945794,0.54515 -1.829046,-1.060016 c -2.636365,-1.527912 -3.667344,-2.117495 -3.702799,-2.117495 -0.03685,0 -0.267047,0.131278 -3.228925,1.842931 -1.246369,0.720228 -2.274541,1.314327 -2.284839,1.320232 -0.0098,0.0048 -0.239132,-0.115418 -0.508717,-0.269805 z m -4.513531,-2.603569 c -0.279785,-0.161781 -0.776059,-0.448545 -1.102841,-0.637166 -0.465357,-0.26861 -0.585607,-0.350769 -0.554959,-0.379099 0.02197,-0.01952 2.770889,-1.614048 6.109668,-3.542555 5.161263,-2.981203 6.080313,-3.501975 6.135753,-3.476695 0.03587,0.01708 1.355394,0.776083 2.932303,1.688349 5.225609,3.023076 5.937248,3.434384 7.590899,4.387377 0.902335,0.519991 1.641134,0.954724 1.641767,0.966071 6.59e-4,0.0122 -0.293668,0.190086 -0.654002,0.397424 -0.360359,0.207167 -0.836014,0.483242 -1.05704,0.613302 -0.221075,0.130058 -0.42446,0.245135 -0.452132,0.255749 -0.03172,0.0122 -0.212779,-0.07442 -0.492271,-0.235471 -0.243037,-0.140064 -0.99694,-0.574017 -1.675246,-0.964071 -0.678283,-0.390055 -1.566246,-0.903775 -1.973211,-1.14159 -0.406989,-0.237913 -1.038274,-0.602932 -1.402854,-0.811392 -0.36458,-0.208387 -1.398218,-0.804413 -2.296942,-1.324331 -0.898749,-0.519918 -1.763188,-1.018803 -1.920942,-1.1086 l -0.286887,-0.163244 -0.375999,0.215951 c -0.206923,0.118835 -1.166845,0.670109 -2.133429,1.225067 -0.966559,0.554934 -2.277689,1.310813 -2.913587,1.679736 -0.635898,0.368923 -1.371231,0.794823 -1.634082,0.946429 -0.262825,0.151531 -1.023292,0.591047 -1.689886,0.97649 -0.666619,0.385443 -1.228532,0.706588 -1.248687,0.71364 -0.01952,0.0074 -0.265608,-0.119567 -0.545393,-0.281395 z"
       id="path3044"
       sodipodi:nodetypes="ccccssccscsccccccccssssssssscsssscssscccccssssccccccccccsssccsscsssscsscssscccsssssssssssssssssscscsssssssssssscssssssssscsssssss" />
    <g
       id="g1531"
       transform="matrix(0.0658086,0,0,0.0658086,45.922537,69.198572)">
      <path
         style="fill:#6f69a5;stroke:none;stroke-width:0.192"
         d="M 83.328,0 83.52,0.19199999 Z"
         id="path1533" />
    </g>
    <g
       aria-label="The Heraclitus Project"
       id="text4804"
       style="font-size:9.10127px;letter-spacing:0px;word-spacing:0px;stroke-width:0.227532;fill:#f9f9f9">
      <path
         d="m 79.977296,63.804941 q 0.191127,0 0.309443,0.127418 0.127418,0.118316 0.127418,0.309443 0,0.191126 -0.127418,0.318544 -0.118316,0.118317 -0.309443,0.118317 h -1.956773 v 5.761104 q 0,0.200227 -0.136519,0.336746 -0.136519,0.13652 -0.336747,0.13652 -0.200228,0 -0.336747,-0.13652 -0.136519,-0.136519 -0.136519,-0.336746 v -5.761104 h -1.965874 q -0.191127,0 -0.318545,-0.118317 -0.118316,-0.127418 -0.118316,-0.318544 0,-0.191127 0.118316,-0.309443 0.127418,-0.127418 0.318545,-0.127418 z"
         style="-inkscape-font-specification:'Comfortaa Bold';fill:#f9f9f9"
         id="path548" />
      <path
         d="m 83.845329,65.889132 q 0.627988,0 1.128558,0.273038 0.50057,0.273038 0.782709,0.800911 0.282139,0.518773 0.282139,1.255976 v 2.238912 q 0,0.200228 -0.136519,0.336747 -0.127418,0.127418 -0.327645,0.127418 -0.200228,0 -0.336747,-0.127418 -0.127418,-0.136519 -0.127418,-0.336747 v -2.238912 q 0,-0.737203 -0.400456,-1.110355 -0.391355,-0.382254 -1.046646,-0.382254 -0.382253,0 -0.700798,0.154722 -0.309443,0.154722 -0.491468,0.418658 -0.172925,0.263937 -0.172925,0.591583 v 2.566558 q 0,0.200228 -0.127417,0.336747 -0.127418,0.127418 -0.336747,0.127418 -0.200228,0 -0.336747,-0.127418 -0.127418,-0.136519 -0.127418,-0.336747 v -6.188863 q 0,-0.20933 0.127418,-0.336747 0.136519,-0.127418 0.336747,-0.127418 0.209329,0 0.336747,0.127418 0.127417,0.127417 0.127417,0.336747 v 2.229811 q 0.291241,-0.291241 0.691697,-0.445962 0.400456,-0.163823 0.855519,-0.163823 z"
         style="-inkscape-font-specification:'Comfortaa Bold';fill:#f9f9f9"
         id="path550" />
      <path
         d="m 92.05468,68.346474 q 0,0.172925 -0.118317,0.291241 -0.118316,0.109215 -0.300342,0.109215 h -3.458482 q 0.100114,0.637089 0.57338,1.028444 0.482367,0.391354 1.174063,0.391354 0.273039,0 0.564279,-0.100114 0.300342,-0.100114 0.491469,-0.245734 0.127418,-0.100114 0.300342,-0.100114 0.172924,0 0.273038,0.09101 0.163823,0.136519 0.163823,0.309443 0,0.163823 -0.145621,0.273038 -0.309443,0.245734 -0.773608,0.400456 -0.455063,0.154722 -0.873722,0.154722 -0.746304,0 -1.337886,-0.318545 -0.591583,-0.327646 -0.92833,-0.901026 -0.327645,-0.57338 -0.327645,-1.301481 0,-0.728102 0.309443,-1.301482 0.318544,-0.582481 0.873722,-0.901025 0.564278,-0.327646 1.274177,-0.327646 0.700798,0 1.210469,0.309443 0.509671,0.309443 0.78271,0.864621 0.273038,0.555177 0.273038,1.274177 z m -2.266217,-1.665532 q -0.664392,0 -1.083051,0.364051 -0.409557,0.364051 -0.518772,0.973836 h 3.030723 q -0.08191,-0.609785 -0.455064,-0.973836 -0.373152,-0.364051 -0.973836,-0.364051 z"
         style="-inkscape-font-specification:'Comfortaa Bold';fill:#f9f9f9"
         id="path552" />
      <path
         d="m 75.91813,81.427359 q -0.200228,0 -0.336747,-0.136519 -0.136519,-0.136519 -0.136519,-0.336747 v -6.161559 q 0,-0.20933 0.136519,-0.336747 0.136519,-0.136519 0.336747,-0.136519 0.209329,0 0.336747,0.136519 0.136519,0.127417 0.136519,0.336747 v 2.612064 h 4.222989 v -2.612064 q 0,-0.20933 0.136519,-0.336747 0.136519,-0.136519 0.336747,-0.136519 0.200228,0 0.327646,0.136519 0.136519,0.127417 0.136519,0.336747 v 6.161559 q 0,0.209329 -0.136519,0.345848 -0.127418,0.127418 -0.327646,0.127418 -0.200228,0 -0.336747,-0.136519 -0.136519,-0.136519 -0.136519,-0.336747 v -2.712178 h -4.222989 v 2.712178 q 0,0.200228 -0.136519,0.336747 -0.127418,0.136519 -0.336747,0.136519 z"
         style="-inkscape-font-specification:'Comfortaa Bold';fill:#f9f9f9"
         id="path554" />
      <path
         d="m 87.749783,78.860801 q 0,0.172924 -0.118317,0.291241 -0.118316,0.109215 -0.300342,0.109215 h -3.458482 q 0.100114,0.637089 0.57338,1.028444 0.482367,0.391354 1.174064,0.391354 0.273038,0 0.564278,-0.100114 0.300342,-0.100114 0.491469,-0.245734 0.127418,-0.100114 0.300342,-0.100114 0.172924,0 0.273038,0.09101 0.163823,0.136519 0.163823,0.309443 0,0.163823 -0.145621,0.273038 -0.309443,0.245734 -0.773607,0.400456 -0.455064,0.154721 -0.873722,0.154721 -0.746304,0 -1.337887,-0.318544 -0.591583,-0.327646 -0.92833,-0.901026 -0.327645,-0.57338 -0.327645,-1.301481 0,-0.728102 0.309443,-1.301482 0.318544,-0.582481 0.873722,-0.901026 0.564279,-0.327645 1.274178,-0.327645 0.700797,0 1.210468,0.309443 0.509672,0.309443 0.78271,0.86462 0.273038,0.555178 0.273038,1.274178 z m -2.266216,-1.665532 q -0.664393,0 -1.083051,0.364051 -0.409558,0.36405 -0.518773,0.973835 h 3.030723 Q 86.830555,77.92337 86.457402,77.55932 86.08425,77.195269 85.483567,77.195269 Z"
         style="-inkscape-font-specification:'Comfortaa Bold';fill:#f9f9f9"
         id="path556" />
      <path
         d="m 91.372091,76.394357 q 0.482367,0 0.755405,0.14562 0.273038,0.145621 0.273038,0.364051 0,0.06371 -0.0091,0.09101 -0.08191,0.29124 -0.364051,0.29124 -0.04551,0 -0.136519,-0.0182 -0.364051,-0.06371 -0.591582,-0.06371 -0.655292,0 -1.055748,0.300342 -0.400455,0.300342 -0.400455,0.810013 v 2.657571 q 0,0.21843 -0.118317,0.336747 -0.109215,0.118316 -0.336747,0.118316 -0.21843,0 -0.336747,-0.109215 -0.118316,-0.118317 -0.118316,-0.345848 v -4.068268 q 0,-0.21843 0.118316,-0.336747 0.118317,-0.118316 0.336747,-0.118316 0.455064,0 0.455064,0.455063 v 0.172924 q 0.273038,-0.318544 0.673493,-0.50057 0.400456,-0.182025 0.85552,-0.182025 z"
         style="-inkscape-font-specification:'Comfortaa Bold';fill:#f9f9f9"
         id="path558" />
      <path
         d="m 95.249224,76.41256 q 0.700798,0 1.265076,0.336747 0.57338,0.327645 0.901026,0.910127 0.336747,0.57338 0.336747,1.283279 v 2.029583 q 0,0.200228 -0.136519,0.336747 -0.127418,0.127417 -0.327646,0.127417 -0.200228,0 -0.336747,-0.127417 -0.127418,-0.136519 -0.127418,-0.336747 v -0.336747 q -0.318544,0.391354 -0.773607,0.609785 -0.455064,0.21843 -0.982938,0.21843 -0.655291,0 -1.192266,-0.327645 -0.527874,-0.327646 -0.837317,-0.901026 -0.300342,-0.582481 -0.300342,-1.29238 0,-0.709899 0.327646,-1.283279 0.327646,-0.582482 0.901026,-0.910127 0.582481,-0.336747 1.283279,-0.336747 z m 0,4.23209 q 0.455063,0 0.819114,-0.21843 0.373152,-0.227532 0.582481,-0.609786 0.20933,-0.391354 0.20933,-0.873721 0,-0.482368 -0.20933,-0.873722 -0.209329,-0.391355 -0.582481,-0.609785 -0.364051,-0.227532 -0.819114,-0.227532 -0.455064,0 -0.828216,0.227532 -0.364051,0.21843 -0.582481,0.609785 -0.209329,0.391354 -0.209329,0.873722 0,0.482367 0.209329,0.873721 0.21843,0.382254 0.582481,0.609786 0.373152,0.21843 0.828216,0.21843 z"
         style="-inkscape-font-specification:'Comfortaa Bold';fill:#f9f9f9"
         id="path560" />
      <path
         d="m 101.39257,81.463764 q -0.719,0 -1.29238,-0.327645 -0.573376,-0.327646 -0.901022,-0.901026 -0.318544,-0.582481 -0.318544,-1.29238 0,-0.728102 0.309443,-1.301482 0.318545,-0.582481 0.882823,-0.901026 0.56428,-0.327645 1.27418,-0.327645 1.07395,0 1.78385,0.819114 0.091,0.100114 0.091,0.236633 0,0.200228 -0.20023,0.336747 -0.091,0.06371 -0.20933,0.06371 -0.20933,0 -0.35495,-0.163823 -0.22753,-0.245734 -0.50057,-0.35495 -0.26393,-0.118316 -0.60978,-0.118316 -0.7008,0 -1.13766,0.473266 -0.436862,0.464165 -0.436862,1.237773 0,0.491468 0.200228,0.882823 0.209334,0.382253 0.573384,0.600684 0.37315,0.21843 0.84641,0.21843 0.61889,0 1.00114,-0.318544 0.17293,-0.127418 0.33675,-0.127418 0.12742,0 0.23663,0.08191 0.17293,0.145621 0.17293,0.327646 0,0.136519 -0.10922,0.245734 -0.65529,0.609785 -1.63823,0.609785 z"
         style="-inkscape-font-specification:'Comfortaa Bold';fill:#f9f9f9"
         id="path562" />
      <path
         d="m 105.78848,81.427359 q -0.39135,0 -0.70989,-0.209329 -0.30945,-0.21843 -0.48237,-0.600684 -0.17293,-0.391354 -0.17293,-0.873722 v -4.969293 q 0,-0.200228 0.12742,-0.327646 0.12742,-0.127417 0.32765,-0.127417 0.20023,0 0.32764,0.127417 0.12742,0.127418 0.12742,0.327646 v 4.969293 q 0,0.336747 0.12742,0.555178 0.12742,0.21843 0.32764,0.21843 h 0.22754 q 0.18202,0 0.29124,0.127418 0.11831,0.127418 0.11831,0.327646 0,0.200228 -0.17292,0.327645 -0.17292,0.127418 -0.44596,0.127418 z"
         style="-inkscape-font-specification:'Comfortaa Bold';fill:#f9f9f9"
         id="path564" />
      <path
         d="m 107.89087,81.427359 q -0.20023,0 -0.33674,-0.127418 -0.12742,-0.136519 -0.12742,-0.336747 v -4.050065 q 0,-0.209329 0.12742,-0.336747 0.13651,-0.127417 0.33674,-0.127417 0.20933,0 0.33675,0.127417 0.12742,0.127418 0.12742,0.336747 v 4.050065 q 0,0.200228 -0.12742,0.336747 -0.12742,0.127418 -0.33675,0.127418 z m 0,-5.788407 q -0.24573,0 -0.42776,-0.172924 -0.17292,-0.182026 -0.17292,-0.42776 0,-0.245734 0.17292,-0.418659 0.18203,-0.182025 0.42776,-0.182025 0.24574,0 0.41866,0.182025 0.18203,0.172925 0.18203,0.418659 0,0.245734 -0.18203,0.42776 -0.17292,0.172924 -0.41866,0.172924 z"
         style="-inkscape-font-specification:'Comfortaa Bold';fill:#f9f9f9"
         id="path566" />
      <path
         d="m 112.20487,80.517232 q 0.16383,0 0.27304,0.127418 0.11832,0.127418 0.11832,0.327646 0,0.200228 -0.15472,0.327645 -0.14562,0.127418 -0.38226,0.127418 h -0.16382 q -0.44596,0 -0.81911,-0.227532 -0.36405,-0.236633 -0.57338,-0.637088 -0.20933,-0.400456 -0.20933,-0.901026 v -2.248014 h -0.41866 q -0.19113,0 -0.30944,-0.109215 -0.11832,-0.109215 -0.11832,-0.273038 0,-0.182025 0.11832,-0.291241 0.11831,-0.109215 0.30944,-0.109215 h 0.41866 v -1.310583 q 0,-0.200228 0.12741,-0.327645 0.12742,-0.127418 0.32765,-0.127418 0.20023,0 0.32765,0.127418 0.12741,0.127417 0.12741,0.327645 v 1.310583 h 0.77361 q 0.19113,0 0.30944,0.109215 0.11832,0.109216 0.11832,0.291241 0,0.163823 -0.11832,0.273038 -0.11831,0.109215 -0.30944,0.109215 h -0.77361 v 2.248014 q 0,0.364051 0.20023,0.609785 0.20023,0.245734 0.49147,0.245734 z"
         style="-inkscape-font-specification:'Comfortaa Bold';fill:#f9f9f9"
         id="path568" />
      <path
         d="m 117.83855,76.439863 q 0.20933,0 0.33675,0.127418 0.12742,0.127418 0.12742,0.336747 v 4.059166 q 0,0.200228 -0.12742,0.336747 -0.12742,0.127418 -0.33675,0.127418 -0.20023,0 -0.33675,-0.127418 -0.12741,-0.136519 -0.12741,-0.336747 V 80.86308 q -0.29124,0.291241 -0.6917,0.455064 -0.40046,0.154722 -0.85552,0.154722 -0.62799,0 -1.12856,-0.273039 -0.50057,-0.273038 -0.78271,-0.79181 -0.28214,-0.527874 -0.28214,-1.265076 v -2.238913 q 0,-0.200228 0.12742,-0.327646 0.13652,-0.136519 0.33675,-0.136519 0.20023,0 0.32765,0.136519 0.13651,0.127418 0.13651,0.327646 v 2.238913 q 0,0.737202 0.39136,1.119456 0.40045,0.373152 1.05575,0.373152 0.38225,0 0.69169,-0.154722 0.31855,-0.154721 0.49147,-0.418658 0.18203,-0.263937 0.18203,-0.591583 v -2.566558 q 0,-0.209329 0.12741,-0.336747 0.13652,-0.127418 0.33675,-0.127418 z"
         style="-inkscape-font-specification:'Comfortaa Bold';fill:#f9f9f9"
         id="path570" />
      <path
         d="m 121.75209,81.463764 q -0.61889,0 -1.16496,-0.191126 -0.54608,-0.191127 -0.85552,-0.50057 -0.11832,-0.118317 -0.11832,-0.28214 0,-0.21843 0.18203,-0.354949 0.17292,-0.127418 0.31854,-0.127418 0.18203,0 0.34585,0.163823 0.17292,0.191127 0.51877,0.336747 0.34585,0.136519 0.7372,0.136519 0.51878,0 0.80092,-0.172924 0.29124,-0.172924 0.29124,-0.464165 0,-0.282139 -0.28214,-0.464165 -0.28214,-0.191126 -0.95564,-0.318544 -1.74744,-0.336747 -1.74744,-1.438001 0,-0.445962 0.26394,-0.755405 0.26393,-0.309443 0.69169,-0.464165 0.42776,-0.154721 0.91013,-0.154721 0.59158,0 1.05575,0.191126 0.47326,0.191127 0.7463,0.527874 0.11832,0.14562 0.11832,0.291241 0,0.154721 -0.15472,0.282139 -0.10012,0.07281 -0.25484,0.07281 -0.23663,0 -0.42776,-0.172924 -0.22753,-0.209329 -0.48237,-0.291241 -0.25483,-0.09101 -0.61888,-0.09101 -0.41866,0 -0.6917,0.14562 -0.26394,0.136519 -0.26394,0.391355 0,0.182025 0.091,0.309443 0.091,0.118316 0.34585,0.227531 0.25483,0.100114 0.7372,0.200228 0.99204,0.200228 1.40159,0.555178 0.41866,0.354949 0.41866,0.919228 0,0.418658 -0.22753,0.764507 -0.22753,0.336747 -0.67349,0.536975 -0.43686,0.191126 -1.05575,0.191126 z"
         style="-inkscape-font-specification:'Comfortaa Bold';fill:#f9f9f9"
         id="path572" />
      <path
         d="m 75.91813,91.941686 q -0.200228,0 -0.336747,-0.136519 -0.136519,-0.136519 -0.136519,-0.336747 v -6.16156 q 0,-0.209329 0.136519,-0.336747 0.136519,-0.136519 0.336747,-0.136519 h 1.820254 q 0.673494,0 1.201367,0.300342 0.536975,0.300342 0.828216,0.837317 0.300342,0.536975 0.300342,1.21957 0,0.664393 -0.300342,1.183165 -0.291241,0.518773 -0.828216,0.810013 -0.527873,0.291241 -1.201367,0.291241 h -1.346988 v 1.993178 q 0,0.200228 -0.136519,0.336747 -0.127418,0.136519 -0.336747,0.136519 z m 1.820254,-3.340166 q 0.618886,0 1.019342,-0.391355 0.400456,-0.400456 0.400456,-1.019342 0,-0.64619 -0.400456,-1.064848 -0.400456,-0.418659 -1.019342,-0.418659 h -1.346988 v 2.894204 z"
         style="-inkscape-font-specification:'Comfortaa Bold';fill:#f9f9f9"
         id="path574" />
      <path
         d="m 83.463075,86.908684 q 0.482367,0 0.755405,0.14562 0.273038,0.14562 0.273038,0.364051 0,0.06371 -0.0091,0.09101 -0.08191,0.29124 -0.364051,0.29124 -0.04551,0 -0.136519,-0.0182 -0.364051,-0.06371 -0.591582,-0.06371 -0.655292,0 -1.055748,0.300342 -0.400456,0.300342 -0.400456,0.810013 v 2.65757 q 0,0.218431 -0.118316,0.336747 -0.109215,0.118317 -0.336747,0.118317 -0.218431,0 -0.336747,-0.109215 -0.118317,-0.118317 -0.118317,-0.345849 v -4.068267 q 0,-0.218431 0.118317,-0.336747 0.118316,-0.118317 0.336747,-0.118317 0.455063,0 0.455063,0.455064 v 0.172924 q 0.273038,-0.318544 0.673494,-0.50057 0.400456,-0.182025 0.85552,-0.182025 z"
         style="-inkscape-font-specification:'Comfortaa Bold';fill:#f9f9f9"
         id="path576" />
      <path
         d="m 87.340208,91.978091 q -0.728101,0 -1.301481,-0.318544 -0.57338,-0.327646 -0.891925,-0.901026 -0.318544,-0.57338 -0.318544,-1.301482 0,-0.737203 0.318544,-1.310583 0.318545,-0.57338 0.891925,-0.891924 0.57338,-0.327646 1.301481,-0.327646 0.719,0 1.283279,0.327646 0.57338,0.318544 0.891925,0.891924 0.327645,0.57338 0.327645,1.310583 0,0.728102 -0.318544,1.301482 -0.318545,0.57338 -0.891925,0.901026 -0.564278,0.318544 -1.29238,0.318544 z m 0,-0.819114 q 0.464165,0 0.828216,-0.218431 0.373152,-0.21843 0.57338,-0.600684 0.209329,-0.391354 0.209329,-0.882823 0,-0.491468 -0.209329,-0.882823 -0.200228,-0.391354 -0.57338,-0.609785 -0.364051,-0.21843 -0.828216,-0.21843 -0.464165,0 -0.837317,0.21843 -0.36405,0.218431 -0.57338,0.609785 -0.209329,0.391355 -0.209329,0.882823 0,0.491469 0.209329,0.882823 0.20933,0.382254 0.57338,0.600684 0.373152,0.218431 0.837317,0.218431 z"
         style="-inkscape-font-specification:'Comfortaa Bold';fill:#f9f9f9"
         id="path578" />
      <path
         d="m 89.952265,94.071383 q -0.200228,0 -0.327646,-0.136519 -0.127417,-0.127418 -0.127417,-0.327646 0,-0.200228 0.127417,-0.336747 0.127418,-0.127417 0.327646,-0.127417 0.536975,0 0.882823,-0.345849 0.345849,-0.336747 0.345849,-0.873722 v -4.496027 q 0,-0.209329 0.127417,-0.336747 0.136519,-0.127418 0.336747,-0.127418 0.209329,0 0.336747,0.127418 0.127418,0.127418 0.127418,0.336747 v 4.496027 q 0,0.618887 -0.273038,1.110355 -0.273038,0.491469 -0.764507,0.764507 -0.491468,0.273038 -1.119456,0.273038 z m 1.692836,-7.918105 q -0.245734,0 -0.427759,-0.172924 -0.172925,-0.182025 -0.172925,-0.427759 0,-0.245735 0.172925,-0.418659 0.182025,-0.182025 0.427759,-0.182025 0.245735,0 0.418659,0.182025 0.182025,0.172924 0.182025,0.418659 0,0.245734 -0.182025,0.427759 -0.172924,0.172924 -0.418659,0.172924 z"
         style="-inkscape-font-specification:'Comfortaa Bold';fill:#f9f9f9"
         id="path580" />
      <path
         d="m 97.943178,89.375128 q 0,0.172924 -0.118317,0.29124 -0.118316,0.109216 -0.300342,0.109216 h -3.458482 q 0.100114,0.637089 0.57338,1.028443 0.482367,0.391355 1.174064,0.391355 0.273038,0 0.564279,-0.100114 0.300341,-0.100114 0.491468,-0.245734 0.127418,-0.100114 0.300342,-0.100114 0.172924,0 0.273038,0.09101 0.163823,0.136519 0.163823,0.309443 0,0.163823 -0.14562,0.273039 -0.309444,0.245734 -0.773608,0.400455 -0.455064,0.154722 -0.873722,0.154722 -0.746304,0 -1.337887,-0.318544 -0.591582,-0.327646 -0.928329,-0.901026 -0.327646,-0.57338 -0.327646,-1.301482 0,-0.728101 0.309443,-1.301481 0.318545,-0.582482 0.873722,-0.901026 0.564279,-0.327646 1.274178,-0.327646 0.700798,0 1.210469,0.309443 0.509671,0.309444 0.782709,0.864621 0.273038,0.555178 0.273038,1.274178 z m -2.266216,-1.665533 q -0.664393,0 -1.083051,0.364051 -0.409557,0.364051 -0.518773,0.973836 h 3.030723 q -0.08191,-0.609785 -0.455063,-0.973836 -0.373152,-0.364051 -0.973836,-0.364051 z"
         style="-inkscape-font-specification:'Comfortaa Bold';fill:#f9f9f9"
         id="path582" />
      <path
         d="m 101.20143,91.978091 q -0.719,0 -1.292379,-0.327646 -0.57338,-0.327645 -0.901026,-0.901025 -0.318544,-0.582482 -0.318544,-1.292381 0,-0.728101 0.309443,-1.301481 0.318545,-0.582482 0.882823,-0.901026 0.564283,-0.327646 1.274173,-0.327646 1.07395,0 1.78385,0.819115 0.091,0.100114 0.091,0.236633 0,0.200228 -0.20023,0.336747 -0.091,0.06371 -0.20933,0.06371 -0.20933,0 -0.35495,-0.163822 -0.22753,-0.245735 -0.50057,-0.35495 -0.26394,-0.118316 -0.60979,-0.118316 -0.70079,0 -1.13765,0.473266 -0.436865,0.464164 -0.436865,1.237772 0,0.491469 0.200228,0.882823 0.209329,0.382254 0.573377,0.600684 0.37316,0.218431 0.84642,0.218431 0.61889,0 1.00114,-0.318545 0.17293,-0.127418 0.33675,-0.127418 0.12742,0 0.23663,0.08191 0.17293,0.14562 0.17293,0.327646 0,0.136519 -0.10922,0.245734 -0.65529,0.609785 -1.63823,0.609785 z"
         style="-inkscape-font-specification:'Comfortaa Bold';fill:#f9f9f9"
         id="path584" />
      <path
         d="m 106.53477,91.031559 q 0.16383,0 0.27304,0.127418 0.11832,0.127417 0.11832,0.327645 0,0.200228 -0.15472,0.327646 -0.14562,0.127418 -0.38226,0.127418 h -0.16382 q -0.44596,0 -0.81912,-0.227532 -0.36405,-0.236633 -0.57338,-0.637089 -0.20932,-0.400456 -0.20932,-0.901025 v -2.248014 h -0.41866 q -0.19113,0 -0.30945,-0.109215 -0.11831,-0.109216 -0.11831,-0.273038 0,-0.182026 0.11831,-0.291241 0.11832,-0.109215 0.30945,-0.109215 h 0.41866 v -1.310583 q 0,-0.200228 0.12741,-0.327646 0.12742,-0.127418 0.32765,-0.127418 0.20023,0 0.32764,0.127418 0.12742,0.127418 0.12742,0.327646 v 1.310583 h 0.77361 q 0.19113,0 0.30944,0.109215 0.11832,0.109215 0.11832,0.291241 0,0.163822 -0.11832,0.273038 -0.11831,0.109215 -0.30944,0.109215 h -0.77361 v 2.248014 q 0,0.36405 0.20023,0.609785 0.20023,0.245734 0.49147,0.245734 z"
         style="-inkscape-font-specification:'Comfortaa Bold';fill:#f9f9f9"
         id="path586" />
    </g>
  </g>
</svg>
