<?xml version="1.0" encoding="UTF-8" standalone="no"?>
<!-- Created with Inkscape (http://www.inkscape.org/) -->

<svg
   width="50.650734mm"
   height="10mm"
   viewBox="0 0 50.650737 9.9999993"
   version="1.1"
   id="svg188"
   inkscape:export-filename="/home/ksmd/snsbttci.png"
   inkscape:export-xdpi="100.076"
   inkscape:export-ydpi="100.076"
   inkscape:version="1.2.2 (b0a8486541, 2022-12-01)"
   sodipodi:docname="snsbttci.svg"
   xmlns:inkscape="http://www.inkscape.org/namespaces/inkscape"
   xmlns:sodipodi="http://sodipodi.sourceforge.net/DTD/sodipodi-0.dtd"
   xmlns="http://www.w3.org/2000/svg"
   xmlns:svg="http://www.w3.org/2000/svg">
  <sodipodi:namedview
     id="namedview190"
     pagecolor="#ffffff"
     bordercolor="#666666"
     borderopacity="1.0"
     inkscape:pageshadow="2"
     inkscape:pageopacity="0.0"
     inkscape:pagecheckerboard="0"
     inkscape:document-units="mm"
     showgrid="false"
     inkscape:zoom="3.9105942"
     inkscape:cx="109.702"
     inkscape:cy="24.292984"
     inkscape:window-width="1920"
     inkscape:window-height="1080"
     inkscape:window-x="0"
     inkscape:window-y="0"
     inkscape:window-maximized="1"
     inkscape:current-layer="text9371"
     fit-margin-top="2"
     lock-margins="true"
     fit-margin-left="2"
     fit-margin-right="2"
     fit-margin-bottom="2"
     inkscape:showpageshadow="2"
     inkscape:deskcolor="#d1d1d1"
     showguides="true">
    <sodipodi:guide
       position="8.9947026,5.0061352"
       orientation="0,-1"
       id="guide10927"
       inkscape:locked="false" />
  </sodipodi:namedview>
  <defs
     id="defs185" />
  <g
     inkscape:label="Layer 1"
     inkscape:groupmode="layer"
     id="layer1"
     transform="translate(0.52069611,-4.8203142)">
    <g
       id="g1383"
       transform="matrix(0.05576383,0,0,0.05576383,-0.60768608,3.8177485)">
      <path
         style="fill:#6952f1;stroke-width:0.192"
         d="M 39.623971,175.3009 1.5599712,153.31006 V 109.15598 65.001906 l 0.624,0.376736 c 0.3432,0.207205 8.1839998,4.73962 17.4239998,10.072035 9.24,5.332414 23.1936,13.386538 31.008,17.898053 7.8144,4.511512 17.164053,9.90055 20.777008,11.97562 l 6.569009,3.77288 0.007,44.112 c 0.0038,24.2616 -0.05781,44.10537 -0.137008,44.09726 -0.0792,-0.008 -17.2728,-9.91062 -38.208,-22.00559 z M 9.8700309,63.631486 c -2.9795908,-1.710643 -5.3986777,-3.17309 -5.3757487,-3.24988 0.022929,-0.07679 7.4720888,-4.428567 16.5536888,-9.670613 9.0816,-5.242045 25.484394,-14.710749 36.450655,-21.041565 10.96626,-6.330817 20.145461,-11.567409 20.293601,-11.624255 0.227814,-0.08742 0.183057,0.879707 0.179284,6.215507 l -0.0045,6.308543 -5.323538,3.060847 C 67.683782,36.481739 17.753458,65.302153 16.05572,66.293259 l -0.768251,0.448489 z"
         id="path1389"
         sodipodi:nodetypes="ccccsssscccscsssssscsscs" />
      <path
         style="fill:#5327da;stroke-width:0.192"
         d="m 83.446278,154.88923 c 0,-23.3904 0.02236,-32.9592 0.04969,-21.264 0.02733,11.6952 0.02733,30.8328 0,42.528 -0.02733,11.6952 -0.04969,2.1264 -0.04969,-21.264 z M 121.9833,128.29991 C 101.25453,116.33226 84.124084,106.4246 83.915645,106.28289 83.541777,106.02871 83.537359,105.74982 83.588316,85.625688 l 0.05165,-20.399538 37.908824,21.885962 c 20.84986,12.037282 37.97904,21.956188 38.06488,22.042018 0.0858,0.0858 0.13406,9.3246 0.10718,20.5306 l -0.0489,20.37455 z M 121.65597,80.8604 83.639971,58.912038 83.591101,38.445409 83.542231,17.978781 83.9751,18.205302 c 0.238079,0.124586 7.94967,4.564466 17.13687,9.8664 9.1872,5.301933 26.0352,15.021165 37.44,21.598292 11.4048,6.577128 20.8444,12.058379 20.97688,12.180558 0.19085,0.17601 0.23073,4.451852 0.192,20.590177 l -0.0489,20.368031 z M 42.509649,82.429906 37.091326,79.295402 57.424197,67.556314 c 11.18308,-6.4565 20.383306,-11.73909 20.444947,-11.73909 0.06164,0 0.08929,2.815091 0.06145,6.255756 l -0.05062,6.255756 -14.784,8.545373 c -8.1312,4.699953 -14.8704,8.577981 -14.976,8.617836 -0.1056,0.03986 -2.630244,-1.338061 -5.610322,-3.062039 z M 26.327971,73.079615 c -2.904,-1.678201 -5.28,-3.135452 -5.28,-3.238338 0,-0.102885 12.431207,-7.364112 27.624906,-16.136061 15.193698,-8.771948 28.002498,-16.170281 28.464,-16.44074 l 0.839094,-0.491741 -0.0014,6.306245 -0.0014,6.306244 -22.112968,12.768 C 43.698019,69.175625 33.26586,75.193399 32.677578,75.526058 l -1.069607,0.604831 z"
         id="path1387" />
      <path
         style="fill:#371990;stroke-width:0.192"
         d="m 83.543971,154.88456 c 0,-23.35263 0.07068,-42.43053 0.157066,-42.39533 0.08639,0.0352 16.623583,9.568 36.749333,21.184 27.128,15.6575 36.53501,21.17515 36.37093,21.33323 -0.15022,0.14473 -69.263275,40.0782 -73.133329,42.25639 -0.0792,0.0446 -0.144,-19.02565 -0.144,-42.37829 z m -9.504,-54.2461 c -2.112,-1.219544 -3.908263,-2.285411 -3.991697,-2.368592 -0.08343,-0.08318 1.666166,-1.197423 3.888,-2.476093 l 4.039697,-2.324855 v 4.694154 c 0,2.581786 -0.0216,4.693836 -0.048,4.693446 -0.0264,-3.8e-4 -1.776,-0.99852 -3.888,-2.21806 z m -15.195538,-8.765333 -5.403537,-3.118572 0.507537,-0.307238 c 0.847507,-0.513038 23.13191,-13.35866 23.595538,-13.601412 l 0.432,-0.226191 -0.0028,6.294757 -0.0028,6.294755 -6.652831,3.84 c -3.659055,2.112 -6.746574,3.863058 -6.861154,3.891237 -0.11458,0.02818 -2.639918,-1.352121 -5.611865,-3.067336 z"
         id="path1385" />
    </g>
    <g
       aria-label="sNSBT_TCI"
       id="text9371"
       style="font-style:italic;font-weight:bold;font-size:7.7611px;font-family:Verdana;-inkscape-font-specification:'Verdana Bold Italic';fill:#f7eacf;stroke-width:0.264583">
      <path
         d="m 11.960938,12.599376 q -0.481188,0 -0.92357,-0.162983 -0.442383,-0.162983 -0.714022,-0.457905 -0.07761,-0.09313 -0.07761,-0.178505 0,-0.131939 0.124178,-0.232833 0.09313,-0.06985 0.194027,-0.06985 0.131939,0 0.225072,0.108655 0.186267,0.217311 0.48895,0.333728 0.310444,0.116416 0.682976,0.116416 0.543277,0 0.814916,-0.186266 0.271638,-0.186267 0.279399,-0.488949 0,-0.2794 -0.271638,-0.465666 -0.271639,-0.186267 -0.861482,-0.2794 -0.760588,-0.124178 -1.140882,-0.426861 -0.372533,-0.3104435 -0.372533,-0.7450651 0,-0.5665603 0.434622,-0.8770043 0.442383,-0.310444 1.102076,-0.310444 0.512233,0 0.892527,0.1785053 0.380294,0.1707442 0.613127,0.4811882 0.06209,0.1008943 0.06209,0.1785053 0,0.1319387 -0.124177,0.2095497 -0.05433,0.038806 -0.147461,0.038806 -0.162983,0 -0.271639,-0.1164165 -0.380294,-0.4346216 -1.039987,-0.4346216 -0.42686,0 -0.682977,0.1785053 -0.256116,0.1707442 -0.256116,0.4346216 0,0.2793996 0.240594,0.4501438 0.240594,0.1629828 0.853721,0.2638778 0.830438,0.139699 1.187448,0.457904 0.357011,0.310444 0.357011,0.77611 0,0.357011 -0.217311,0.636411 -0.20955,0.279399 -0.589844,0.434621 -0.380293,0.155222 -0.861482,0.155222 z"
         style="font-style:normal;font-weight:normal;font-family:comfortaa;-inkscape-font-specification:comfortaa;fill:#f9f9f9"
         id="path10956" />
      <path
         d="m 15.042092,12.560571 q -0.131939,0 -0.217311,-0.08537 -0.08537,-0.08537 -0.08537,-0.217311 V 6.8018347 q 0,-0.1319387 0.08537,-0.2173108 0.08537,-0.085372 0.217311,-0.085372 0.139699,0 0.232833,0.1086554 L 18.98473,11.481778 V 6.8018347 q 0,-0.1319387 0.08537,-0.2173108 0.09313,-0.085372 0.217311,-0.085372 0.131939,0 0.217311,0.085372 0.08537,0.085372 0.08537,0.2173108 v 5.4560533 q 0,0.124177 -0.08537,0.217311 -0.08537,0.08537 -0.217311,0.08537 -0.155222,0 -0.225072,-0.100895 L 15.344775,7.5857057 v 4.6721823 q 0,0.124177 -0.08537,0.217311 -0.08537,0.08537 -0.21731,0.08537 z"
         style="font-style:normal;font-weight:normal;font-family:comfortaa;-inkscape-font-specification:comfortaa;fill:#f9f9f9"
         id="path10958" />
      <path
         d="m 23.004986,12.638182 q -0.737305,0 -1.311626,-0.310444 -0.56656,-0.318205 -0.814916,-0.853721 -0.03104,-0.05433 -0.03104,-0.124178 0,-0.108655 0.07761,-0.178505 0.08537,-0.07761 0.225072,-0.07761 0.09313,0 0.170744,0.05433 0.08537,0.04657 0.124178,0.139699 0.178505,0.34925 0.589843,0.566561 0.4191,0.209549 0.970138,0.209549 0.63641,0 1.024465,-0.302683 0.388055,-0.310444 0.388055,-0.861482 0,-0.488949 -0.364772,-0.822676 Q 23.695724,9.7432915 22.973941,9.6501583 22.073654,9.5415029 21.55366,9.0913591 21.041428,8.6334542 21.041428,7.9737607 q 0,-0.465666 0.248355,-0.8149155 0.256116,-0.3570105 0.698499,-0.5432769 0.450144,-0.1940275 1.016704,-0.1940275 0.613127,0 1.078793,0.2716385 0.465666,0.2716384 0.729543,0.70626 0.05433,0.085372 0.05433,0.1862664 0,0.1474609 -0.1397,0.232833 -0.06209,0.031044 -0.1397,0.031044 -0.08537,0 -0.162983,-0.038806 Q 24.355417,7.764211 24.308851,7.6866 23.874229,7.0036232 22.997225,6.9958621 q -0.628649,0 -0.993421,0.2638774 -0.364772,0.2638774 -0.364772,0.7528267 0,0.9080487 1.466848,1.1020762 0.962377,0.1396998 1.435804,0.5898436 0.473427,0.450144 0.473427,1.187448 0,0.543277 -0.263878,0.939093 -0.263877,0.395816 -0.721782,0.605366 -0.457905,0.201789 -1.024465,0.201789 z"
         style="font-style:normal;font-weight:normal;font-family:comfortaa;-inkscape-font-specification:comfortaa;fill:#f9f9f9"
         id="path10960" />
      <path
         d="m 26.621663,12.560571 q -0.155222,0 -0.248355,-0.07761 -0.09313,-0.08537 -0.09313,-0.225072 V 6.8018347 q 0,-0.1319387 0.08537,-0.2173108 0.08537,-0.085372 0.21731,-0.085372 h 1.885948 q 0.465666,0 0.838198,0.2017886 0.380294,0.1940275 0.597605,0.5432769 0.225072,0.3492495 0.225072,0.7838711 0,0.4113383 -0.225072,0.7373045 -0.217311,0.3259662 -0.589843,0.5044715 0.535515,0.1474609 0.845959,0.5355159 0.310444,0.3802937 0.310444,0.9623767 0,0.519993 -0.240594,0.931332 -0.240594,0.403577 -0.667454,0.63641 -0.4191,0.225072 -0.962377,0.225072 z m 1.847142,-3.5313007 q 0.473427,0 0.768349,-0.2638774 0.302682,-0.2716385 0.302682,-0.7373045 0,-0.4501438 -0.294921,-0.698499 -0.294922,-0.2483552 -0.77611,-0.2483552 H 26.88554 v 1.9480361 z m 0.131938,2.9492177 q 0.566561,0 0.91581,-0.325966 0.357011,-0.333727 0.357011,-0.884765 0,-0.527755 -0.357011,-0.8381991 -0.349249,-0.3182051 -0.91581,-0.3182051 H 26.88554 v 2.3671352 z"
         style="font-style:normal;font-weight:normal;font-family:comfortaa;-inkscape-font-specification:comfortaa;fill:#f9f9f9"
         id="path10962" />
      <path
         d="m 35.352894,6.4991518 q 0.124178,0 0.201789,0.077611 0.07761,0.077611 0.07761,0.2017886 0,0.1164165 -0.07761,0.1940274 -0.07761,0.077611 -0.201789,0.077611 h -1.847142 v 5.2076982 q 0,0.124177 -0.08537,0.217311 -0.08537,0.08537 -0.217311,0.08537 -0.124177,0 -0.21731,-0.08537 -0.08537,-0.09313 -0.08537,-0.217311 V 7.0501898 h -1.83938 q -0.124178,0 -0.201789,-0.077611 -0.07761,-0.077611 -0.07761,-0.1940274 0,-0.1241776 0.07761,-0.2017886 0.07761,-0.077611 0.201789,-0.077611 z"
         style="font-style:normal;font-weight:normal;font-family:comfortaa;-inkscape-font-specification:comfortaa;fill:#f9f9f9"
         id="path10964" />
      <path
         d="m 35.057976,13.165937 q -0.131939,0 -0.217311,-0.08537 -0.08537,-0.08537 -0.08537,-0.21731 0,-0.124178 0.08537,-0.217311 0.08537,-0.08537 0.217311,-0.08537 h 3.717567 q 0.124177,0 0.209549,0.08537 0.08537,0.09313 0.08537,0.217311 0,0.124177 -0.08537,0.209549 -0.08537,0.09313 -0.209549,0.09313 z"
         style="font-style:normal;font-weight:normal;font-family:comfortaa;-inkscape-font-specification:comfortaa;fill:#f9f9f9"
         id="path10966" />
      <path
         d="m 42.756985,6.4991518 q 0.124178,0 0.201789,0.077611 0.07761,0.077611 0.07761,0.2017886 0,0.1164165 -0.07761,0.1940274 -0.07761,0.077611 -0.201789,0.077611 h -1.847142 v 5.2076982 q 0,0.124177 -0.08537,0.217311 -0.08537,0.08537 -0.217311,0.08537 -0.124177,0 -0.217311,-0.08537 -0.08537,-0.09313 -0.08537,-0.217311 V 7.0501898 h -1.83938 q -0.124178,0 -0.201789,-0.077611 -0.07761,-0.077611 -0.07761,-0.1940274 0,-0.1241776 0.07761,-0.2017886 0.07761,-0.077611 0.201789,-0.077611 z"
         style="font-style:normal;font-weight:normal;font-family:comfortaa;-inkscape-font-specification:comfortaa;fill:#f9f9f9"
         id="path10968" />
      <path
         d="m 46.265013,12.638182 q -0.822676,0 -1.513414,-0.4191 -0.690738,-0.419099 -1.102076,-1.13312 -0.403578,-0.714021 -0.403578,-1.5599813 0,-0.8381988 0.403578,-1.55222 0.403577,-0.7140212 1.094315,-1.1331205 0.690737,-0.4190994 1.521175,-0.4190994 0.558799,0 1.016704,0.1629831 0.457905,0.1629831 0.884766,0.5199936 0.08537,0.062089 0.08537,0.1785053 0,0.062089 -0.03104,0.1164165 -0.03104,0.046567 -0.08537,0.06985 -0.01552,0.054328 -0.06985,0.085372 -0.05433,0.031044 -0.116416,0.031044 -0.116417,0 -0.194028,-0.06985 Q 47.452461,7.2442173 47.095451,7.1200397 46.73844,6.9958621 46.265013,6.9958621 q -0.651932,0 -1.210731,0.3492495 -0.5588,0.3414884 -0.892527,0.9235709 -0.325966,0.5820825 -0.325966,1.2572982 0,0.6907383 0.325966,1.2728203 0.325966,0.582083 0.884766,0.923571 0.558799,0.341488 1.218492,0.341488 0.84596,0 1.528937,-0.543277 0.08537,-0.06209 0.170744,-0.06209 0.116417,0 0.201789,0.08537 0.08537,0.07761 0.08537,0.209549 0,0.124178 -0.08537,0.217311 -0.729544,0.667455 -1.90147,0.667455 z"
         style="font-style:normal;font-weight:normal;font-family:comfortaa;-inkscape-font-specification:comfortaa;fill:#f9f9f9"
         id="path10970" />
      <path
         d="m 49.827357,12.560571 q -0.124178,0 -0.217311,-0.08537 -0.08537,-0.09313 -0.08537,-0.217311 V 6.8018347 q 0,-0.1319387 0.08537,-0.2173108 0.09313,-0.085372 0.217311,-0.085372 0.131938,0 0.21731,0.085372 0.08537,0.085372 0.08537,0.2173108 v 5.4560533 q 0,0.124177 -0.08537,0.217311 -0.08537,0.08537 -0.21731,0.08537 z"
         style="font-style:normal;font-weight:normal;font-family:comfortaa;-inkscape-font-specification:comfortaa;fill:#f9f9f9"
         id="path10972" />
    </g>
  </g>
</svg>
